<svg id="레이어_1" data-name="레이어 1" xmlns="http://www.w3.org/2000/svg" viewBox="0 0 406 170"><defs><style>.cls-1{fill:#fff;}</style></defs><title>DDB(round)</title><path d="M390.74,0H15.26A15.26,15.26,0,0,0,0,15.26V154.74A15.26,15.26,0,0,0,15.26,170H390.74A15.26,15.26,0,0,0,406,154.74V15.26A15.26,15.26,0,0,0,390.74,0Z"/><path class="cls-1" d="M85.85,129.37a9.42,9.42,0,0,1-6.93-2.21,10.58,10.58,0,0,1-2.2-7.65v-68H71.9A6.23,6.23,0,0,1,68,50.24a4.91,4.91,0,0,1-1.6-4.08,4.9,4.9,0,0,1,.29-2.28A4.81,4.81,0,0,1,68,42a6.63,6.63,0,0,1,3.9-1.19h39.33a48,48,0,0,1,18.69,3.32A35.35,35.35,0,0,1,143,53.47a40.65,40.65,0,0,1,7.7,14.11,58.19,58.19,0,0,1,2.53,17,55.13,55.13,0,0,1-3.21,19.63,36.41,36.41,0,0,1-9.3,13.86,39.54,39.54,0,0,1-14.89,8.5,69.89,69.89,0,0,1-20.13,2.72Zm25.38-14.53a15.91,15.91,0,0,0,14.46-7.74,45.21,45.21,0,0,0,4.65-22.61,56.4,56.4,0,0,0-1.18-11.81,28.74,28.74,0,0,0-3.72-9.27,16.88,16.88,0,0,0-6.52-6,19.9,19.9,0,0,0-9.72-2.21h-8.46v55.67a3.6,3.6,0,0,0,.16,1.63,3.61,3.61,0,0,0,2.27,2.24,3.6,3.6,0,0,0,1.63.13Z"/><path class="cls-1" d="M178.89,129.37a9.7,9.7,0,0,1-7-2.21,11,11,0,0,1-2.2-7.65v-68h-4.82A6.22,6.22,0,0,1,161,50.24a5.06,5.06,0,0,1-1.27-1.86,5.12,5.12,0,0,1-.34-2.22,5.15,5.15,0,0,1,.33-2.27A5.23,5.23,0,0,1,161,42a6.6,6.6,0,0,1,3.89-1.19h39.42A48,48,0,0,1,223,44.12a34.6,34.6,0,0,1,13.11,9.35,39.21,39.21,0,0,1,7.7,14.11,58.2,58.2,0,0,1,2.54,17,55.14,55.14,0,0,1-3.22,19.63,35.56,35.56,0,0,1-9.3,13.86,39.46,39.46,0,0,1-14.89,8.5,69.89,69.89,0,0,1-20.13,2.72Zm25.38-14.53a15.91,15.91,0,0,0,14.46-7.74,44.35,44.35,0,0,0,4.65-22.61,55.74,55.74,0,0,0-1.18-11.81,28.43,28.43,0,0,0-3.64-9.27,18.45,18.45,0,0,0-6.51-6,20.17,20.17,0,0,0-9.73-2.21h-9v55.67a3.55,3.55,0,0,0,4.06,4Z"/><path class="cls-1" d="M271.93,129.37a9.67,9.67,0,0,1-7-2.21,10.94,10.94,0,0,1-2.2-7.65v-68h-4.83a6,6,0,0,1-3.8-1.27,4.88,4.88,0,0,1-1.61-4.08,4.9,4.9,0,0,1,.3-2.28A4.81,4.81,0,0,1,254.09,42a6.33,6.33,0,0,1,3.8-1.19h49.4A37.93,37.93,0,0,1,321.76,43a24.6,24.6,0,0,1,8.45,5.61,17.72,17.72,0,0,1,4.15,7.31,30.3,30.3,0,0,1,1.1,7.4,17.14,17.14,0,0,1-2.79,10,22,22,0,0,1-8.46,7,24.41,24.41,0,0,1,11,7.73,22.09,22.09,0,0,1,4.32,14.28,25,25,0,0,1-2.63,11.73,26,26,0,0,1-6.85,8.5,30.52,30.52,0,0,1-9.89,5.18,40.06,40.06,0,0,1-11.51,1.71Zm39.76-63.24a10.38,10.38,0,0,0-.65-4,10.51,10.51,0,0,0-2.14-3.46,11.17,11.17,0,0,0-8.46-3.06h-14.3v21h14.3a11.39,11.39,0,0,0,8.46-3,10.68,10.68,0,0,0,2.79-7.48Zm-8.46,49.13a13,13,0,0,0,10-3.32,12.23,12.23,0,0,0,3.05-8.5A12.52,12.52,0,0,0,313.21,95a13,13,0,0,0-10-3.4H286.31v20.14c0,2.63,1.36,4,4.15,4Z"/></svg>