<svg width="44" height="44" viewBox="0 0 44 44" fill="none" xmlns="http://www.w3.org/2000/svg">
<path fill-rule="evenodd" clip-rule="evenodd" d="M44 22C44 34.1502 34.1502 44 22 44C9.84973 44 0 34.1502 0 22C0 9.84973 9.84973 0 22 0C34.1502 0 44 9.84973 44 22ZM28.6 13.2C28.6 16.8451 25.6452 19.8 22 19.8C18.3549 19.8 15.4 16.8451 15.4 13.2C15.4 9.55493 18.3549 6.6 22 6.6C25.6452 6.6 28.6 9.55493 28.6 13.2ZM22 24.2C15.9507 24.2 10.6142 27.2518 7.44627 31.9C10.6142 36.5482 15.9507 39.6 22 39.6C28.0493 39.6 33.3857 36.5482 36.5537 31.9C33.3857 27.2518 28.0493 24.2 22 24.2Z" fill="#515154"/>
</svg>
