<svg width="20" height="23" viewBox="0 0 20 23" fill="none" xmlns="http://www.w3.org/2000/svg">
<path d="M20 1C20 0.447715 19.5523 0 19 0C18.4477 0 18 0.447715 18 1H20ZM19 15V16C19.5523 16 20 15.5523 20 15H19ZM0.292893 14.2929C-0.0976311 14.6834 -0.0976311 15.3166 0.292893 15.7071L6.65685 22.0711C7.04738 22.4616 7.68054 22.4616 8.07107 22.0711C8.46159 21.6805 8.46159 21.0474 8.07107 20.6569L2.41421 15L8.07107 9.34315C8.46159 8.95262 8.46159 8.31946 8.07107 7.92893C7.68054 7.53841 7.04738 7.53841 6.65685 7.92893L0.292893 14.2929ZM18 1V15H20V1H18ZM19 14H1V16H19V14Z" fill="black" fill-opacity="0.6"/>
</svg>
