<svg width="18" height="18" viewBox="0 0 18 18" fill="none" xmlns="http://www.w3.org/2000/svg">
<path d="M7.76363 1.80517C8.15278 0.607463 9.84722 0.607461 10.2364 1.80517L11.4023 5.39352C11.5763 5.92915 12.0755 6.2918 12.6387 6.2918H16.4117C17.671 6.2918 18.1946 7.9033 17.1758 8.64352L14.1234 10.8612C13.6677 11.1923 13.4771 11.7791 13.6511 12.3147L14.817 15.903C15.2062 17.1007 13.8354 18.0967 12.8166 17.3565L9.76412 15.1388C9.30849 14.8077 8.69151 14.8077 8.23588 15.1388L5.18345 17.3565C4.16462 18.0967 2.79379 17.1007 3.18295 15.903L4.34888 12.3147C4.52291 11.7791 4.33226 11.1923 3.87662 10.8612L0.824191 8.64352C-0.194637 7.9033 0.328971 6.2918 1.58831 6.2918H5.36133C5.92452 6.2918 6.42366 5.92915 6.5977 5.39352L7.76363 1.80517Z"/>
</svg>
